<svg xmlns="http://www.w3.org/2000/svg" width="367" height="310" viewBox="0 0 367 310"><path fill="#1238C2" transform="translate(0,310) scale(.1,-.1)" d="M641 2694 c-176 -48 -321 -193 -378 -379 -16 -55 -18 -105 -18 -570 0 -500 0 -511 22 -581 60 -191 226 -331 421 -357 l80 -10 22 -54 c64 -155 210 -253 378 -253 171 0 311 90 378 245 l28 65 292 0 291 0 12 -39 c14 -48 87 -150 133 -184 75 -57 137 -80 232 -85 75 -3 102 0 155 18 76 25 133 62 185 120 35 39 86 131 86 155 0 6 36 16 80 21 209 28 387 191 431 393 7 34 9 146 6 329 -4 292 -13 353 -67 500 -116 310 -370 544 -706 649 l-89 28 -960 2 c-817 2 -968 0 -1014 -13z m1981 -203 c304 -78 540 -312 630 -626 22 -75 23 -98 23 -360 0 -274 -1 -281 -23 -325 -50 -95 -142 -162 -244 -176 l-43 -6 -17 49 c-39 112 -139 211 -251 250 -76 27 -213 24 -290 -6 -79 -31 -176 -123 -217 -203 -16 -34 -30 -67 -30 -75 0 -10 -54 -13 -290 -13 l-289 0 -35 74 c-112 244 -409 320 -625 162 -55 -41 -124 -136 -143 -198 l-12 -40 -45 7 c-104 15 -189 76 -239 170 l-27 50 0 525 0 525 24 45 c27 53 93 125 136 148 73 41 60 40 1011 41 877 1 924 0 996 -18z m-1361 -1398 c136 -70 161 -246 48 -348 -49 -44 -76 -55 -140 -55 -115 0 -209 97 -209 217 0 113 96 210 211 212 20 1 59 -11 90 -26z m1384 3 c85 -40 125 -103 125 -196 0 -82 -53 -164 -127 -196 -46 -20 -127 -18 -172 5 -161 82 -162 302 -2 384 67 33 111 34 176 3z"/></svg>