<svg version="1.1" id="Layer_1" xmlns="http://www.w3.org/2000/svg" xmlns:xlink="http://www.w3.org/1999/xlink" x="0px" y="0px"
	 width="100%" viewBox="0 0 1024 1024" enable-background="new 0 0 1024 1024" xml:space="preserve">
<path fill="#1238C2" opacity="1.000000" stroke="none" 
	d="
M554.000000,155.801697 
	C576.996521,155.790619 599.494873,155.590881 621.989258,155.804474 
	C689.994202,156.450226 746.447021,182.829132 791.582581,233.294968 
	C825.164368,270.842651 843.668823,315.278473 849.343323,365.185608 
	C852.988770,397.247284 850.476074,429.431000 851.168091,461.551758 
	C851.362305,470.564178 850.262817,479.485626 848.338135,488.308105 
	C839.253906,529.948364 800.872009,564.177246 758.633850,568.164490 
	C753.666199,568.633423 748.642395,568.997314 743.671692,568.782654 
	C739.978882,568.623169 738.549438,569.677124 737.649475,573.377869 
	C731.887146,597.072693 718.197449,615.060303 697.409851,627.644592 
	C654.296448,653.744507 596.468384,636.278198 574.910339,590.706787 
	C572.271912,585.129395 569.824768,579.472290 568.649963,573.376587 
	C568.051147,570.269348 566.465942,568.912537 563.179138,568.917542 
	C520.519531,568.982605 477.859619,568.990051 435.200043,568.903931 
	C431.441956,568.896362 430.170868,570.562317 429.203979,573.977356 
	C419.262329,609.090515 396.497986,631.303406 360.684082,638.239380 
	C321.179779,645.890015 284.832611,625.360962 266.993927,590.532166 
	C264.257355,585.189209 261.774658,579.695923 260.733185,573.746582 
	C260.035889,569.763184 258.205444,568.175781 254.024002,568.331299 
	C232.867935,569.117981 213.363785,563.247559 195.895752,551.687683 
	C164.408661,530.850647 147.254196,501.578278 147.112137,463.388428 
	C146.867294,397.566223 146.735718,331.741730 147.002121,265.920013 
	C147.205994,215.546143 180.250717,172.877975 228.902634,159.385391 
	C238.056152,156.846863 247.489395,155.734985 257.045990,155.739471 
	C355.863983,155.785934 454.682007,155.787766 554.000000,155.801697 
M621.491821,190.284363 
	C499.855530,190.287308 378.219269,190.307953 256.582977,190.271606 
	C240.689529,190.266846 226.287064,194.976181 213.659637,204.341919 
	C192.541367,220.005249 181.310730,240.989334 181.316498,267.601471 
	C181.330673,332.918549 181.311234,398.235657 181.331192,463.552734 
	C181.342880,501.813171 213.069443,533.991577 251.397980,534.672607 
	C259.402039,534.814758 259.382629,534.809021 261.613953,527.370361 
	C272.080078,492.478790 305.291046,464.022400 345.490448,464.522797 
	C385.091278,465.015747 419.579742,491.321808 429.312653,529.721558 
	C430.259216,533.456177 432.016205,534.760437 435.858948,534.750488 
	C478.181488,534.640686 520.504517,534.641785 562.827026,534.753052 
	C566.554077,534.762817 568.076477,533.431152 568.931274,529.881958 
	C571.012146,521.242065 574.813477,513.294373 579.437439,505.697052 
	C603.567566,466.050812 655.564209,452.509064 695.735474,475.661591 
	C717.110413,487.980957 731.046692,506.200287 737.333252,530.113770 
	C738.182800,533.345276 739.640686,534.871948 743.176392,534.775635 
	C747.841797,534.648438 752.458740,534.432739 757.085388,533.705505 
	C791.519714,528.293274 816.664185,499.232880 816.740784,464.532837 
	C816.797852,438.706055 816.657593,412.878601 816.794739,387.052460 
	C816.842773,378.005951 815.732971,369.070618 814.282837,360.235931 
	C807.934631,321.561035 792.599854,286.858765 766.377563,257.525208 
	C728.077576,214.680710 680.679382,190.807846 621.491821,190.284363 
M622.963013,508.461090 
	C605.808777,522.326172 597.798462,539.911316 601.364868,562.084351 
	C605.166931,585.722412 627.324219,605.298157 650.583984,605.719482 
	C682.654846,606.300476 706.952332,581.924866 705.673340,549.807861 
	C704.850342,529.142029 694.742310,513.495056 676.475403,504.144409 
	C658.421265,494.902649 640.430481,496.412933 622.963013,508.461090 
M381.910797,513.586548 
	C372.465698,504.389557 361.119110,498.912506 348.019012,498.430389 
	C313.225739,497.149780 286.946625,528.341370 293.538544,562.585510 
	C298.771301,589.768738 326.468079,610.167175 352.225433,605.389832 
	C373.224640,601.495117 388.101990,589.651306 394.876007,569.146790 
	C401.686584,548.531616 396.849640,530.115723 381.910797,513.586548 
z"/>
<path fill="#1238C2" opacity="1.000000" stroke="none" 
	d="
M229.695053,745.841919 
	C230.928406,741.975830 231.983902,738.464844 233.232208,735.023743 
	C238.082199,721.654419 250.574432,714.636169 265.617157,716.760193 
	C278.992523,718.648865 287.325653,728.665466 288.397522,743.044189 
	C290.016998,764.767578 292.172546,786.450500 293.969421,808.161377 
	C295.203674,823.074768 296.464355,837.993835 297.233734,852.935059 
	C297.690796,861.810913 293.012085,866.968872 284.724030,868.124695 
	C275.638214,869.391785 268.199219,865.036926 265.886566,857.056335 
	C264.104858,850.907959 264.401520,844.498901 263.886536,838.226685 
	C261.884979,813.848938 260.355713,789.432678 258.582581,765.035645 
	C258.308838,761.269165 257.679321,757.528503 256.386200,753.633972 
	C254.357681,760.353088 252.412170,767.098633 250.284790,773.786255 
	C244.332504,792.497864 238.392670,811.214172 232.270233,829.870422 
	C229.199738,839.226746 223.672440,843.147461 214.140564,843.384460 
	C201.848969,843.690125 195.917618,840.693848 192.471466,830.600159 
	C186.181656,812.177551 180.557846,793.527405 174.670578,774.967651 
	C172.210556,767.212402 169.787231,759.445557 166.726135,751.709106 
	C166.274277,756.868591 165.727264,762.021851 165.386520,767.188660 
	C163.612778,794.084717 161.904449,820.985046 160.131912,847.881165 
	C159.957123,850.533386 159.636658,853.192383 159.150024,855.804626 
	C157.755585,863.289795 151.713943,868.139221 143.850845,868.229614 
	C135.156387,868.329590 129.697861,864.171875 128.180511,855.962219 
	C126.794754,848.464661 128.677811,841.028503 129.131622,833.581177 
	C130.072098,818.147522 131.471802,802.741211 132.743546,787.328613 
	C134.070297,771.249329 135.188797,755.145569 136.928162,739.109924 
	C138.216461,727.232849 148.120377,718.275513 160.474869,716.770386 
	C174.602066,715.049255 185.896286,720.947876 191.010788,733.238037 
	C195.814163,744.780579 198.579849,757.013000 202.358688,768.905029 
	C205.675705,779.343506 208.787216,789.847351 212.449005,801.825439 
	C218.470245,782.313660 224.038010,764.271423 229.695053,745.841919 
z"/>
<path fill="#1238C2" opacity="1.000000" stroke="none" 
	d="
M383.156036,764.795898 
	C398.869446,759.670166 408.952667,765.068848 412.888336,780.685913 
	C417.154755,797.615295 421.155792,814.611511 425.283813,831.575867 
	C425.663361,833.135620 426.124481,834.675598 427.326752,836.277527 
	C430.452637,823.080322 433.580719,809.883728 436.703705,796.685791 
	C439.077698,786.653320 441.191040,776.550476 443.884521,766.604675 
	C446.783966,755.898132 462.187958,751.278625 470.733551,758.420288 
	C475.754944,762.616699 474.946075,768.341614 473.547699,773.707275 
	C469.773102,788.190308 465.704742,802.597229 461.697235,817.018921 
	C458.579926,828.237061 455.451141,839.453064 452.197937,850.632324 
	C447.352844,867.281982 429.075287,874.141785 414.168274,865.002258 
	C408.989166,861.827026 406.339478,856.848145 404.824860,851.295532 
	C401.323486,838.459412 398.091675,825.549927 394.721313,812.677856 
	C394.105133,810.324524 393.350983,808.007324 392.222351,804.192566 
	C388.657288,818.011536 385.503113,830.366333 382.271301,842.700867 
	C381.007233,847.525452 379.893738,852.422058 377.691650,856.934631 
	C372.850159,866.855896 364.132782,868.867065 354.180908,868.291626 
	C344.701965,867.743591 337.500580,863.572876 333.865417,854.622131 
	C328.153473,840.557678 324.998383,825.687988 320.817535,811.145630 
	C317.555481,799.799072 314.701477,788.334839 311.694427,776.915466 
	C310.631073,772.877380 309.858948,768.814697 310.622986,764.593201 
	C311.123199,761.829407 312.392761,759.593018 314.618347,757.908386 
	C323.819275,750.944031 339.005585,756.595764 341.310822,767.825439 
	C345.791473,789.652222 350.988342,811.313477 356.387299,832.927673 
	C356.667175,834.048157 357.060944,835.140198 357.804596,837.552490 
	C359.973999,829.028992 361.828766,821.723450 363.693329,814.420288 
	C366.738464,802.493347 369.757050,790.559509 372.852905,778.645691 
	C374.369873,772.808105 377.130920,767.805725 383.156036,764.795898 
z"/>
<path fill="#1238C2" opacity="1.000000" stroke="none" 
	d="
M871.210571,854.585266 
	C869.706360,862.949402 866.298767,866.988220 859.374512,867.909485 
	C850.580627,869.079468 844.769897,864.769836 841.600037,856.987427 
	C840.085083,856.639954 839.377563,857.459045 838.764587,858.196045 
	C826.545044,872.888428 795.830017,872.231262 781.925171,861.790710 
	C769.755127,852.652649 765.873718,840.354553 768.024475,826.092651 
	C770.177368,811.816650 779.492981,803.256714 792.852600,798.818481 
	C805.582397,794.589478 818.343262,794.537720 831.097900,798.790283 
	C832.986511,799.419983 834.906616,799.955811 836.817261,800.517456 
	C836.953430,800.557495 837.132446,800.451477 837.291565,800.413391 
	C839.534607,792.412292 835.309875,783.808228 827.449646,780.656799 
	C819.085144,777.303284 810.510254,777.561096 801.938904,779.684509 
	C798.068542,780.643372 794.301819,782.014587 790.472168,783.144714 
	C784.352173,784.950806 779.044006,783.121765 776.664978,778.438110 
	C773.695923,772.592651 775.144958,765.613098 780.403198,761.964966 
	C786.989807,757.395203 794.622253,755.521118 802.403503,754.413635 
	C814.187012,752.736511 825.985168,752.697021 837.542236,755.922852 
	C855.580994,760.957886 865.844421,773.119141 869.283630,791.329895 
	C870.399292,797.237366 870.901794,803.232727 870.849487,809.201477 
	C870.718384,824.183472 870.689331,839.159180 871.210571,854.585266 
M826.472900,817.000793 
	C819.804871,815.690186 813.187866,815.665100 807.015686,818.830200 
	C801.606934,821.603638 798.075806,826.115479 798.560974,832.381226 
	C799.057251,838.789673 802.953735,843.078064 809.200439,844.762146 
	C818.088562,847.158508 826.220337,845.596558 833.588135,839.837708 
	C839.365601,835.321960 838.303772,829.139771 837.664185,823.325012 
	C837.134766,818.511414 832.098206,818.892090 828.770020,817.424683 
	C828.329041,817.230225 827.791870,817.253967 826.472900,817.000793 
z"/>
<path fill="#1238C2" opacity="1.000000" stroke="none" 
	d="
M562.525146,759.296875 
	C579.204529,767.883484 585.469299,782.363159 586.209778,799.643372 
	C586.936340,816.598816 586.238953,833.592529 587.135254,850.566162 
	C587.668518,860.665710 584.001892,865.938843 576.330933,867.780090 
	C568.442749,869.673462 561.668945,866.038452 557.507568,857.705444 
	C557.229065,857.147766 556.786438,856.672058 556.037842,855.621887 
	C550.062622,862.911926 542.723145,867.649536 533.595093,868.742737 
	C516.679626,870.768494 500.752930,869.024963 489.468597,854.189941 
	C477.206268,838.069336 482.190277,812.880066 499.691864,802.816528 
	C515.064209,793.977417 531.368774,793.806396 547.983826,798.922791 
	C549.571228,799.411682 551.141235,799.958130 552.734680,800.425476 
	C553.013611,800.507324 553.369446,800.327026 553.688721,800.262024 
	C555.752991,794.092651 551.893066,785.184204 545.584717,781.808044 
	C536.342285,776.861572 526.647583,777.452148 516.898071,779.787170 
	C513.508972,780.598877 510.247711,781.929993 506.884705,782.868591 
	C500.347687,784.693115 494.872009,782.520874 492.443817,777.263428 
	C489.804199,771.548218 491.558624,765.094116 497.099243,761.480469 
	C503.637238,757.216248 511.081299,755.194580 518.705811,754.258057 
	C533.545166,752.435364 548.258118,752.530029 562.525146,759.296875 
M554.211670,833.367615 
	C555.031433,830.427856 554.522888,827.425842 554.633118,824.452698 
	C554.701538,822.607849 553.815857,821.370056 552.353394,820.316772 
	C544.675598,814.787354 527.071045,814.926941 519.589050,820.627625 
	C512.526001,826.009033 512.316467,836.931213 519.221497,842.208435 
	C529.013062,849.691589 550.275696,845.013794 554.211670,833.367615 
z"/>
<path fill="#1238C2" opacity="1.000000" stroke="none" 
	d="
M607.458862,801.124390 
	C600.942505,776.638611 613.895508,757.386780 639.430664,754.045532 
	C652.854370,752.289062 666.364075,752.734863 679.299194,757.719116 
	C681.313110,758.495178 683.264771,759.440247 685.218384,760.363892 
	C692.800659,763.948975 694.127625,769.825012 691.244080,777.545898 
	C688.621033,784.569031 682.387451,786.459778 674.618774,782.979187 
	C666.127808,779.174866 657.509399,776.636963 648.070618,777.264160 
	C641.311340,777.713196 636.231812,780.467102 635.637268,784.533630 
	C635.075562,788.375061 638.749084,792.387939 645.432739,794.381958 
	C651.161255,796.091003 657.038452,797.336853 662.895996,798.567993 
	C667.811890,799.601257 672.568359,801.093201 677.159790,803.059387 
	C688.772888,808.032471 696.253357,816.364685 697.216003,829.361389 
	C698.277771,843.698303 693.169006,855.071594 680.388245,862.530212 
	C674.222473,866.128418 667.541565,868.302795 660.556335,868.873413 
	C645.875244,870.072693 631.244873,870.028259 617.388184,863.770752 
	C614.172302,862.318542 611.101196,860.686707 608.591614,858.168152 
	C603.080872,852.637817 603.759399,843.117737 609.837524,838.193115 
	C613.702209,835.061707 617.555298,835.951904 621.554321,837.662781 
	C631.416504,841.881897 641.466858,845.262329 652.427185,844.755798 
	C654.611572,844.654785 656.703979,844.295166 658.807556,843.717102 
	C663.329468,842.474670 666.326538,839.641113 666.402649,834.972290 
	C666.476318,830.456970 663.419189,827.799561 659.250671,826.417114 
	C654.489563,824.838135 649.540894,824.183289 644.625061,823.339905 
	C635.566833,821.785828 626.720581,819.659912 618.845947,814.528992 
	C613.797546,811.239685 609.971313,807.035095 607.458862,801.124390 
z"/>
<path fill="#1238C2" opacity="1.000000" stroke="none" 
	d="
M715.887695,732.076660 
	C715.788147,727.579468 715.863342,723.607483 717.330811,719.770996 
	C720.348938,711.880554 727.255615,707.905884 735.563110,709.369202 
	C744.232422,710.896240 748.326294,715.799316 748.337158,725.013611 
	C748.386780,767.005920 748.402832,808.998230 748.387634,850.990540 
	C748.383545,862.252441 742.986206,868.281311 733.040771,868.372864 
	C721.683228,868.477356 716.072815,863.002930 715.997986,851.042114 
	C715.831238,824.381287 715.891296,797.718933 715.871887,771.057251 
	C715.862610,758.226196 715.882629,745.395142 715.887695,732.076660 
z"/>
</svg>