<svg version="1.0" xmlns="http://www.w3.org/2000/svg" width="890pt" height="384pt" viewBox="0 0 890 384" preserveAspectRatio="xMidYMid meet"><g transform="translate(0,384) scale(0.1,-0.1)" fill="#1238C2" stroke="none"><g transform="translate(4200,0)"><path d="M1081 2984 c-176 -48 -321 -193 -378 -379 -16 -55 -18 -105 -18 -570 0 -500 0 -511 22 -581 60 -191 226 -331 421 -357 l80 -10 22 -54 c64 -155 210 -253 378 -253 171 0 311 90 378 245 l28 65 292 0 291 0 12 -39 c14 -48 87 -150 133 -184 75 -57 137 -80 232 -85 75 -3 102 0 155 18 76 25 133 62 185 120 35 39 86 131 86 155 0 6 36 16 80 21 209 28 387 191 431 393 7 34 9 146 6 329 -4 292 -13 353 -67 500 -116 310 -370 544 -706 649 l-89 28 -960 2 c-817 2 -968 0 -1014 -13z m1981 -203 c304 -78 540 -312 630 -626 22 -75 23 -98 23 -360 0 -274 -1 -281 -23 -325 -50 -95 -142 -162 -244 -176 l-43 -6 -17 49 c-39 112 -139 211 -251 250 -76 27 -213 24 -290 -6 -79 -31 -176 -123 -217 -203 -16 -34 -30 -67 -30 -75 0 -10 -54 -13 -290 -13 l-289 0 -35 74 c-112 244 -409 320 -625 162 -55 -41 -124 -136 -143 -198 l-12 -40 -45 7 c-104 15 -189 76 -239 170 l-27 50 0 525 0 525 24 45 c27 53 93 125 136 148 73 41 60 40 1011 41 877 1 924 0 996 -18z m-1361 -1398 c136 -70 161 -246 48 -348 -49 -44 -76 -55 -140 -55 -115 0 -209 97 -209 217 0 113 96 210 211 212 20 1 59 -11 90 -26z m1384 3 c85 -40 125 -103 125 -196 0 -82 -53 -164 -127 -196 -46 -20 -127 -18 -172 5 -161 82 -162 302 -2 384 67 33 111 34 176 3z"/></g><g transform="translate(-4200,0)"><path d="M4570 2953 c-35 -13 -50 -37 -50 -78 0 -48 19 -71 68 -81 26 -5 36 -1 63 25 26 27 30 37 25 64 -10 52 -63 87 -106 70z"/><path d="M4755 2935 c-42 -41 -33 -105 17 -131 60 -31 118 4 118 72 0 34 -5 47 -26 63 -36 28 -79 27 -109 -4z"/><path d="M5273 2945 c-19 -8 -34 -23 -37 -37 -3 -13 -7 -166 -8 -340 l-3 -316 -24 -26 c-48 -51 -192 -25 -206 36 -2 13 -6 110 -7 216 -3 190 -3 194 -27 213 -37 30 -97 25 -129 -9 -25 -27 -31 -28 -90 -24 -196 14 -335 -109 -336 -298 0 -180 117 -290 298 -278 64 4 100 16 147 49 12 9 21 6 45 -16 42 -40 74 -53 152 -66 95 -16 188 -5 259 31 50 26 59 27 73 15 46 -42 87 -45 505 -45 415 0 440 2 497 42 37 26 61 110 62 213 1 211 -127 355 -315 355 -69 0 -170 -35 -243 -84 -36 -24 -68 -41 -71 -38 -3 3 -5 20 -5 39 0 50 -32 77 -83 70 -22 -3 -49 -15 -61 -27 -20 -19 -21 -33 -24 -220 l-3 -200 -75 0 c-43 0 -90 6 -110 15 -61 25 -64 45 -64 389 0 275 -2 306 -17 324 -24 28 -61 35 -100 17z m-455 -546 c-4 -99 -4 -102 -36 -130 -27 -24 -41 -29 -86 -29 -88 0 -137 63 -117 150 19 86 55 109 170 110 l73 0 -4 -101z m1378 82 c47 -29 74 -93 74 -179 0 -104 4 -102 -252 -102 l-208 0 0 45 c0 25 6 60 14 78 18 44 106 123 169 152 66 31 157 34 203 6z"/><path d="M6620 2928 c-19 -21 -20 -33 -20 -433 0 -404 0 -412 21 -431 13 -11 35 -19 59 -19 24 0 46 8 59 19 21 19 21 27 21 431 0 400 -1 412 -20 433 -28 30 -92 30 -120 0z"/><path d="M7109 2647 c-135 -51 -200 -148 -202 -302 -2 -186 111 -293 316 -300 90 -2 92 -3 89 -26 -6 -39 -40 -86 -72 -99 -19 -8 -66 -11 -131 -9 -100 4 -102 4 -121 -22 -28 -37 -17 -84 25 -106 48 -25 199 -30 271 -9 98 29 175 119 192 224 l6 40 71 7 c80 8 121 22 170 59 33 25 34 26 51 7 59 -65 222 -86 324 -42 103 46 155 137 156 271 0 73 -4 94 -28 148 -67 145 -213 206 -361 151 -108 -40 -175 -139 -191 -280 -13 -123 -49 -163 -142 -157 l-47 3 -5 120 c-6 130 -21 179 -75 243 -61 73 -208 112 -296 79z m149 -163 c41 -29 52 -66 52 -179 l0 -105 -67 0 c-84 0 -131 21 -155 70 -34 66 -11 176 43 214 30 20 98 21 127 0z m777 -6 c76 -59 73 -222 -4 -262 -62 -32 -137 -11 -167 46 -33 63 -15 180 33 218 35 28 102 27 138 -2z"/><path d="M7493 1620 c-12 -5 -26 -18 -32 -29 -7 -13 -11 -141 -11 -370 0 -338 1 -352 20 -371 24 -24 87 -27 116 -6 18 14 19 30 19 381 l0 367 -24 19 c-25 20 -53 23 -88 9z"/><path d="M4512 1564 c-44 -30 -51 -64 -77 -346 -14 -150 -25 -291 -25 -314 0 -52 23 -74 77 -74 71 0 73 6 94 292 10 139 19 262 19 273 2 23 8 6 80 -225 41 -133 57 -170 81 -192 33 -32 74 -36 119 -13 34 18 51 60 118 290 l47 160 7 -60 c4 -33 14 -152 23 -265 18 -235 25 -253 91 -258 64 -5 79 14 77 95 -5 149 -52 563 -67 592 -24 45 -54 61 -113 61 -85 0 -104 -24 -164 -205 -27 -82 -54 -168 -60 -190 l-11 -40 -20 65 c-107 357 -115 370 -217 370 -35 0 -65 -6 -79 -16z"/><path d="M5361 1388 c-45 -24 -48 -40 -23 -137 43 -167 103 -356 121 -381 10 -14 36 -31 58 -39 52 -18 109 -3 137 35 10 15 33 84 50 155 17 71 33 129 36 129 3 0 20 -57 38 -128 18 -70 41 -138 51 -152 45 -63 160 -61 200 3 24 39 120 371 128 442 6 60 -9 79 -63 79 -58 0 -70 -22 -121 -227 -25 -103 -48 -185 -51 -183 -2 3 -24 76 -48 163 -51 186 -67 209 -141 200 -24 -2 -49 -10 -57 -16 -14 -12 -35 -75 -82 -249 -15 -56 -31 -99 -34 -95 -4 5 -27 89 -51 187 -24 99 -51 188 -59 197 -20 25 -60 32 -89 17z"/><path d="M6332 1383 c-50 -18 -77 -52 -68 -88 11 -42 38 -48 114 -25 67 21 123 20 164 -1 22 -12 48 -61 48 -89 0 -18 -4 -20 -22 -13 -13 4 -66 8 -118 8 -78 0 -102 -4 -136 -22 -104 -55 -123 -211 -36 -282 79 -66 246 -64 301 3 11 13 16 12 38 -14 19 -24 33 -30 62 -30 65 0 71 15 71 182 0 239 -24 307 -129 361 -49 24 -65 27 -150 26 -58 0 -113 -7 -139 -16z m221 -304 c35 -9 37 -12 37 -50 0 -70 -72 -112 -157 -92 -72 17 -84 95 -20 133 36 22 83 25 140 9z"/><path d="M6983 1384 c-79 -29 -134 -121 -113 -193 21 -75 67 -109 175 -130 131 -26 162 -49 130 -97 -24 -36 -110 -37 -213 -1 l-64 22 -19 -24 c-61 -75 33 -136 212 -136 82 0 102 4 144 25 66 34 88 67 93 138 8 107 -33 147 -184 183 -105 24 -136 41 -132 72 7 48 90 60 189 27 57 -19 63 -20 79 -5 46 41 22 102 -48 123 -54 16 -198 14 -249 -4z"/><path d="M7842 1386 c-80 -26 -102 -69 -63 -117 l19 -24 59 20 c67 23 125 25 169 7 32 -14 48 -36 59 -86 5 -25 4 -27 -12 -21 -10 5 -55 10 -100 13 -164 8 -253 -54 -253 -178 0 -91 51 -150 146 -170 85 -18 178 1 213 44 12 14 16 12 41 -14 31 -33 73 -40 104 -17 16 12 17 31 14 207 -3 192 -3 196 -31 242 -18 31 -44 57 -75 75 -41 25 -58 28 -147 30 -65 2 -115 -2 -143 -11z m227 -316 c27 -14 28 -59 0 -93 -40 -52 -151 -61 -184 -14 -30 43 -9 99 45 121 22 8 115 0 139 -14z"/></g></g></svg>